<svg version="1.1" id="Layer_1" xmlns="http://www.w3.org/2000/svg" xmlns:xlink="http://www.w3.org/1999/xlink" x="0px" y="0px"
	 width="100%" viewBox="0 0 600 600" enable-background="new 0 0 600 600" xml:space="preserve">
<path fill="#FFFFFF" opacity="1.000000" stroke="none" 
	d="
M307.000000,601.000000 
	C204.666672,601.000000 102.833336,601.000000 1.000000,601.000000 
	C1.000000,401.000000 1.000000,201.000000 1.000000,1.000000 
	C201.000000,1.000000 401.000000,1.000000 601.000000,1.000000 
	C601.000000,201.000000 601.000000,401.000000 601.000000,601.000000 
	C503.166656,601.000000 405.333344,601.000000 307.000000,601.000000 
M414.566895,316.885101 
	C415.377075,310.183594 416.704254,303.495972 416.884705,296.777557 
	C417.213196,284.545563 415.849182,272.517090 412.438446,260.597595 
	C404.001678,231.113403 386.645599,208.815552 360.635437,192.769470 
	C342.083923,181.324753 321.789398,176.352158 300.386841,176.189575 
	C287.400391,176.090912 274.496368,178.353348 262.138336,182.872162 
	C240.862930,190.651642 223.096130,203.000458 209.119064,221.143997 
	C194.762192,239.780533 186.743652,260.649963 185.139526,283.863983 
	C184.087357,299.090607 184.052383,314.407440 184.072876,329.683197 
	C184.097397,347.958984 184.772964,366.232941 184.967056,384.509796 
	C185.128113,399.677704 194.465195,409.101074 209.870544,408.978943 
	C243.308502,408.713867 276.747406,408.454071 310.182068,407.939789 
	C323.190369,407.739716 335.714355,404.225342 347.426392,398.990723 
	C364.748108,391.248840 379.784302,380.264099 391.672394,365.014648 
	C402.754913,350.798615 410.148651,335.082611 414.566895,316.885101 
z"/>
<path fill="#F3EC6C" opacity="1.000000" stroke="none" 
	d="
M414.370239,317.262756 
	C410.148651,335.082611 402.754913,350.798615 391.672394,365.014648 
	C379.784302,380.264099 364.748108,391.248840 347.426392,398.990723 
	C335.714355,404.225342 323.190369,407.739716 310.182068,407.939789 
	C276.747406,408.454071 243.308502,408.713867 209.870544,408.978943 
	C194.465195,409.101074 185.128113,399.677704 184.967056,384.509796 
	C184.772964,366.232941 184.097397,347.958984 184.072876,329.683197 
	C184.052383,314.407440 184.087357,299.090607 185.139526,283.863983 
	C186.743652,260.649963 194.762192,239.780533 209.119064,221.143997 
	C223.096130,203.000458 240.862930,190.651642 262.138336,182.872162 
	C274.496368,178.353348 287.400391,176.090912 300.386841,176.189575 
	C321.789398,176.352158 342.083923,181.324753 360.635437,192.769470 
	C386.645599,208.815552 404.001678,231.113403 412.438446,260.597595 
	C415.849182,272.517090 417.213196,284.545563 416.884705,296.777557 
	C416.704254,303.495972 415.377075,310.183594 414.370239,317.262756 
M253.925751,242.505936 
	C252.335831,244.117950 250.639954,245.639359 249.172104,247.355743 
	C230.807175,268.830170 226.916000,293.323761 237.411484,318.923798 
	C245.331100,338.240906 260.051331,351.975281 280.810486,358.063843 
	C306.335541,365.550201 329.135193,359.966095 348.172943,342.014709 
	C364.636627,326.490479 371.847961,306.892273 369.123138,283.861023 
	C367.423645,269.496277 361.536499,257.143005 352.050018,246.762909 
	C336.911987,230.198898 318.178101,221.841873 295.198914,223.908783 
	C279.427887,225.327332 265.959808,231.299561 253.925751,242.505936 
z"/>
<path fill="#FFFFFF" opacity="1.000000" stroke="none" 
	d="
M254.193527,242.261444 
	C265.959808,231.299561 279.427887,225.327332 295.198914,223.908783 
	C318.178101,221.841873 336.911987,230.198898 352.050018,246.762909 
	C361.536499,257.143005 367.423645,269.496277 369.123138,283.861023 
	C371.847961,306.892273 364.636627,326.490479 348.172943,342.014709 
	C329.135193,359.966095 306.335541,365.550201 280.810486,358.063843 
	C260.051331,351.975281 245.331100,338.240906 237.411484,318.923798 
	C226.916000,293.323761 230.807175,268.830170 249.172104,247.355743 
	C250.639954,245.639359 252.335831,244.117950 254.193527,242.261444 
z"/>
</svg>